<?xml version="1.0" encoding="utf-8"?>
<!-- Generator: Adobe Illustrator 16.0.0, SVG Export Plug-In . SVG Version: 6.00 Build 0)  -->
<!DOCTYPE svg PUBLIC "-//W3C//DTD SVG 1.1//EN" "http://www.w3.org/Graphics/SVG/1.1/DTD/svg11.dtd">
<svg version="1.1" id="Layer_1" xmlns="http://www.w3.org/2000/svg" xmlns:xlink="http://www.w3.org/1999/xlink" x="0px" y="0px"
	 width="2800px" height="2800px" viewBox="0 0 2800 2800" enable-background="new 0 0 2800 2800" xml:space="preserve">


<g>
	<path fill="#87B560" d="M1797.4,702.2c-45,34.6-97.7,58.4-138.2,98.8c-14.3,14.2-26.1,30.7-38.1,46.9l-1.3,1.8
		c4.8-10.8,9.4-21.6,14.1-32.4c6.4-14.8,13.1-29.1,17.3-44.7c10.4-37.9,15.5-77.1,25.1-115.2c4.6-18.2,10-36.4,18.3-53.2
		c2.5-5.1,5.4-10.2,8.8-14.8c6.8-5.8,13.6-11.6,20.3-17.4c5-4.3-1.4-10.9-6.6-8.5c-8.9,4-15.9,10.8-21.7,18.6
		c-36.2,31-72.4,62.1-104.4,97.4c-39.3,43.4-73.4,95-91.4,151.2c-10.8,33.9-15,69.4-20.6,104.5c5.5-53.8,5-108.2,2.7-162.2
		c-0.7-17-1.2-34.1-3-51c-1.7-16.2-4.5-32.2-7.9-48.1c-6.8-32.5-15.8-64.5-22-97.2c-5-26.4-7.8-53.3-5.8-80.2
		c0.3-4.1-4.9-6.8-8.2-4.7c-18.6,12-32.3,30.6-43.8,49.2c-13.4,21.7-24.1,45.3-32.8,69.3c-8.4,23.2-13.7,46.4-15.7,71.1
		c-2.6,32.1-1,64.5,3.3,96.4c1.9,13.9,4.3,27.8,7.3,41.6c2.1,9.6,4.2,19.2,7.8,28.4c2.9,7.6,6.1,15.1,9.3,22.6
		c-8-14.6-16.7-28.9-26.3-42.2c-14.8-20.3-31.6-39-46.4-59.4c-13.1-18-26.9-38.9-28.2-61.7c-0.4-6.3-8.6-7.2-10.7-1.4
		c-17.8,49-23.4,102.5-8.4,153c15,50.3,49.7,91.3,92,121.4c0.5,0.3,0.9,0.7,1.4,1c2.8,1.9,5.5,0.8,6.9-1.4h52c1.2,2.2,3.8,2.6,6,1.7
		c1.7,0.2,3.6-0.2,5-1.7h50.4c2.3,2.6,6.7,3,8.5,0c2.2,2.5,6.6,2.9,8.6,0h41.5c1.6,1.7,4.1,2.7,6.7,1.4c1-0.5,1.9-0.9,2.9-1.4h74.7
		c0.1,0,0.2,0,0.3,0c1.2,1.5,3.1,2.5,5.5,2c51.7-10.8,90.4-56.5,118.4-98.4c16.1-24,30.9-49.3,41.9-76.1
		c4.8-11.8,8.9-24.1,11.6-36.6c2.4-11.2,4.2-22.5,6.9-33.7c2-8,4.4-19.7,11.4-25C1808.3,707.4,1803,698,1797.4,702.2z"/>
	<path fill="#BADD99" d="M1760.5,754.3c-64.6,32.5-117.9,80.3-163.4,135.3c1.4-3.7,2.7-7.4,3.9-11.1c14.3-42.7,21.2-87.5,29-131.7
		c4-23.1,8-46.4,14.8-68.8c1.4-4.7-3.9-8.3-8-6.1c-40.2,21.8-67.2,61-86.9,101.2c-21.2,43.4-35.1,90-48.1,136.4
		c-4.3,15.2-8.5,30.5-12.9,45.7c-0.3,0.9-0.3,1.8-0.1,2.6c-6.4-11.4-15.1-22.4-17.6-35.2c-0.1-0.7-0.4-1.3-0.6-1.8
		c-10.8-57.3-2.4-116.8-9.7-174.6c-2.2-17-6-33.8-8.5-50.8c-2.6-17.7-4.9-35.5-8.4-53c-5.7-28.6-26.2-53.6-24.8-83.8
		c0.3-6,2-11.9,4.4-17.5c2.5-5.9-6.7-9-9.9-4.2c-16.2,24.4-28.5,51.1-36.5,79.3c-7.7,27.4-10.9,55.9-12,84.3
		c-1.2,30.6-0.8,61.5,4.8,91.7c5.4,28.9,15.7,56.6,26.9,83.7c5.5,13.3,11.2,26.6,16.7,39.9c-12.1-14.5-26.2-27.4-40.7-39.3
		c-30.5-24.9-64.3-45.6-94-71.5c-3.8-3.3-10.9-0.2-9.1,5.3c10.2,30.8,19.3,61.9,33.2,91.3c13.3,28.3,32.8,58.5,64,68.8
		c6.7,2.2,9.5-8.3,2.9-10.5c-29.2-9.7-46.5-40.1-58.7-66.3c-10.3-22.2-17.7-45.4-25.2-68.7c25,19.9,51.9,37.4,76.8,57.4
		c29.4,23.6,58.4,51.7,69.8,88.7c2.1,6.7,12.5,3.8,10.5-2.9c-0.7-2.4-1.5-4.7-2.4-7c0.6-1.1,0.7-2.4,0.2-3.9
		c-18.7-55.9-48.4-108-60.1-166.1c-6.1-30.2-5.9-61.6-4.7-92.3c1.1-28.6,4.8-57,12.9-84.5c4.9-16.6,11.5-32.5,19.6-47.7
		c1.3,18.8,9.9,37.2,17.2,54.9c12.9,31.6,13.8,66.8,19.9,100.1c3,16.6,5.7,33,6.8,49.9c1.1,16.5,1.2,33,1.3,49.5
		c0.2,28.7,0.2,57.5,3.8,85.9c-21.2-37.8-29.7-82.9-35.1-125.2c-6.4-50.2-7.4-100.9-7.4-151.4c0-1.3,0-2.6,0-3.8c0-7-10.9-7-10.9,0
		c0,50.2,1,100.5,6.8,150.4c5.7,48.6,15.3,99.8,41.1,142.2c1.6,2.6,3.2,5.1,4.9,7.6c1.1,1.6,2.7,2.3,4.2,2.4
		c1.1,5.3,2.4,10.6,3.9,15.8c0.8,3,3.4,4.1,5.8,3.8c4.3,7.1,8.9,14,12.2,21.4c2.8,6.4,12.2,0.9,9.4-5.5c-0.7-1.5-1.4-3-2.2-4.5
		c2.6,2.6,7.9,2.5,9.3-2.1c12.9-44.2,24.2-88.9,40-132.2c16-43.7,36.8-88.1,70.7-120.9c6.4-6.2,13.3-11.7,20.6-16.6
		c-9,34.6-13.4,70.6-20,105.6c-8,42.6-17.4,87-38.8,125.1c-10,17.8-23.3,33.8-41.4,43.7c-6.1,3.4-0.7,12.7,5.5,9.4
		c13-7.2,23.8-17,32.7-28.5c0.7-0.4,1.3-0.9,1.8-1.7c49-68.5,107.6-130,181.6-170.9c-16.4,36.7-33.7,73.1-55.6,107
		c-24.1,37.2-56.1,74.5-99.6,88.5c-6.6,2.1-3.8,12.6,2.9,10.5c44.6-14.4,77.4-50.7,102.8-88.5c26.6-39.6,46.3-83.3,65.4-126.8
		C1770.1,756.8,1765.6,751.7,1760.5,754.3z"/>
	<path fill="#BADD99" d="M1608.7,738.9c-15,20.5-29.5,41.4-42,63.6c-9.6,17-17.1,35.1-25.4,52.7c-7.1,15.1-14.1,30.2-19.8,45.8
		c-3.6,10-10.2,26.3-4,36.5c3.6,6,13,0.5,9.4-5.5c-1.4-2.3-0.7-7.2,0-10.9c1.4-7.1,3.9-14.1,6.4-20.8c5.4-14.6,12.1-28.6,18.7-42.7
		c8.1-17.3,15.6-34.8,25-51.5c12.2-21.6,26.4-41.9,41.1-61.9C1622.2,738.7,1612.8,733.3,1608.7,738.9z"/>
	<path fill="#BADD99" d="M1724.6,792.1c-50.3,54.6-99.5,110.3-152,162.8c-5,5,2.7,12.6,7.7,7.7c52.5-52.5,101.7-108.2,152-162.8
		C1737,794.6,1729.4,786.9,1724.6,792.1z"/>
	<path fill="#BADD99" d="M1393.6,941.8c-28.6-35-64.9-63.2-90.3-100.9c-3.9-5.8-13.3-0.3-9.4,5.5c25.9,38.5,62.8,67.4,92,103.1
		C1390.4,954.9,1398,947.2,1393.6,941.8z"/>
</g>
</svg>
